<svg width="281" height="261" viewBox="0 0 281 261" fill="none" xmlns="http://www.w3.org/2000/svg">
<path d="M69.0768 7.71652C56.0492 7.71652 45.218 13.0878 36.5834 23.8304C27.9488 34.573 23.6315 48.493 23.6315 65.5904C23.6315 85.5626 28.1761 101.223 37.2651 112.57C46.3542 123.918 57.261 129.592 69.9857 129.592C77.5599 129.592 85.0584 127.02 92.4811 121.876C99.9039 116.58 104.676 110.982 106.796 105.081L112.25 107.804C108.766 116.126 103.236 123.162 95.6623 128.911C88.2396 134.51 78.1659 137.309 65.4412 137.309C45.2938 137.309 29.3122 130.803 17.4964 117.79C5.83214 104.627 0 88.8913 0 70.5835C0 49.4009 6.74105 32.3791 20.2231 19.5183C33.8567 6.50609 50.0655 0 68.8496 0C73.2426 0 78.3173 1.13478 84.0738 3.40434C89.8301 5.67392 93.1628 6.8087 94.0717 6.8087C95.8895 6.8087 96.7984 5.29566 96.7984 2.26956H102.025L104.297 31.093H99.2979C98.2375 24.2843 95.2078 18.6861 90.2089 14.2983C85.3614 9.91043 78.3173 7.71652 69.0768 7.71652Z" fill="white"/>
<path d="M154.46 128.23V132.997C147.492 132.997 143.099 133.904 141.281 135.72L176.046 230.815L209.449 137.082C207.934 134.358 203.238 132.997 195.361 132.997V128.23H232.626V132.997C224.143 132.997 219.371 134.585 218.31 137.763L174.229 261H163.322L134.918 181.792L106.742 261H95.8355L53.1169 140.713C51.9808 137.309 48.5724 137.309 41.7556 133.904C34.9388 130.5 34.9388 130.5 34.9388 130.5L81.5202 131.635L82.6563 132.997C75.6881 132.997 75.6123 133.904 73.7945 135.72L108.56 230.588L130.374 169.083L119.24 137.763C118.179 134.585 113.332 132.997 104.697 132.997V128.23H154.46Z" fill="white"/>
<path d="M207.76 242.868C207.803 246.554 208.858 249.823 210.923 252.675C213.031 255.483 215.381 256.888 217.973 256.888C221.795 256.888 224.87 255.44 227.199 252.544L228.78 253.333C227.506 255.44 225.837 256.975 223.772 257.941C221.751 258.906 219.072 259.389 215.733 259.389C214.064 259.389 212.46 259.147 210.923 258.665C209.385 258.138 207.869 257.304 206.376 256.164C204.882 254.979 203.696 253.246 202.817 250.964C201.939 248.682 201.499 245.962 201.499 242.803C201.499 238.941 202.686 235.694 205.058 233.062C207.474 230.429 210.813 229.113 215.074 229.113C219.731 229.113 223.201 230.429 225.485 233.062C227.77 235.65 228.912 238.919 228.912 242.868H207.76ZM207.825 240.828H222.454C222.191 237.669 221.51 235.256 220.411 233.588C219.357 231.921 217.49 231.087 214.81 231.087C213.273 231.087 211.779 231.987 210.329 233.786C208.924 235.585 208.089 237.932 207.825 240.828Z" fill="white"/>
<path d="M235.908 221.939C233.184 221.719 231.8 221.609 231.756 221.609V220.096C232.591 220.096 234.216 219.635 236.633 218.713C239.093 217.748 240.828 217.265 241.838 217.265V231.943C243.991 229.88 247 228.849 250.866 228.849C252.316 228.849 253.744 229.113 255.149 229.639C256.599 230.122 258.027 230.912 259.433 232.009C260.882 233.062 262.046 234.641 262.925 236.747C263.848 238.854 264.309 241.311 264.309 244.119C264.309 249.033 262.925 252.807 260.157 255.44C257.434 258.072 253.853 259.389 249.416 259.389C246.253 259.389 243.64 258.555 241.575 256.888C239.159 258.555 237.27 259.389 235.908 259.389V221.939ZM241.838 234.181V254.847C243.596 256.383 245.99 257.151 249.021 257.151C251.437 257.151 253.546 256.01 255.347 253.728C257.148 251.403 258.049 248.2 258.049 244.119C258.049 240.258 257.324 237.12 255.874 234.707C254.424 232.294 252.535 231.087 250.207 231.087C246.517 231.087 243.727 232.118 241.838 234.181Z" fill="white"/>
<path d="M122.933 96.1978C123.548 96.1978 124.075 96.4172 124.514 96.856C124.998 97.2947 125.239 97.9748 125.239 98.8963C125.239 99.6422 124.932 100.213 124.317 100.608C123.746 101.002 123.065 101.2 122.274 101.2C121.439 101.2 120.758 100.915 120.231 100.344C119.704 99.73 119.44 98.9182 119.44 97.909C119.44 95.6274 120.385 93.8503 122.274 92.5778C124.163 91.3054 126.843 90.6691 130.313 90.6691C134.399 90.6691 137.386 91.6783 139.275 93.6967C141.208 95.7151 142.174 98.3917 142.174 101.726V114.758C142.174 116.162 142.394 117.194 142.833 117.852C143.317 118.51 143.888 118.839 144.547 118.839C145.118 118.839 145.623 118.685 146.062 118.378C146.545 118.071 146.787 117.698 146.787 117.259H147.973C147.973 118.488 147.512 119.387 146.589 119.958C145.711 120.528 144.151 120.813 141.911 120.813C139.714 120.813 138.155 119.914 137.232 118.115C134.64 120.002 131.411 120.945 127.546 120.945C120.956 120.945 117.661 118.269 117.661 112.915C117.661 111.775 118.057 110.743 118.847 109.822C119.682 108.901 120.868 108.133 122.406 107.518C123.943 106.904 125.393 106.421 126.755 106.07C128.117 105.675 129.808 105.259 131.829 104.82C133.893 104.337 135.365 103.964 136.244 103.701C136.244 100.015 135.761 97.3167 134.794 95.6054C133.828 93.8942 132.114 93.0385 129.654 93.0385C125.7 93.0385 123.46 94.0916 122.933 96.1978ZM136.639 116.47C136.376 115.504 136.244 114.32 136.244 112.915V105.149C135.761 105.324 134.926 105.566 133.74 105.873C132.598 106.18 131.653 106.443 130.906 106.663C130.203 106.882 129.347 107.211 128.336 107.65C127.326 108.089 126.535 108.528 125.964 108.966C125.393 109.405 124.888 109.997 124.448 110.743C124.009 111.445 123.789 112.213 123.789 113.047C123.789 115.153 124.185 116.623 124.976 117.457C125.81 118.29 127.04 118.707 128.666 118.707C131.565 118.707 134.223 117.961 136.639 116.47Z" fill="white"/>
<path d="M149.449 120.287V118.905C151.821 118.905 153.205 118.466 153.601 117.588V95.3421C150.877 95.1228 149.493 95.0131 149.449 95.0131V93.4993C150.284 93.4993 151.909 93.0385 154.325 92.1171C156.786 91.1518 158.521 90.6691 159.531 90.6691V93.5651C161.728 91.6344 163.902 90.6691 166.055 90.6691C168.032 90.6691 169.679 91.0421 170.997 91.788C172.359 92.5339 173.04 93.3676 173.04 94.2891C173.04 95.8687 172.161 96.6585 170.404 96.6585C169.481 96.6585 168.647 96.0442 167.9 94.8156C167.153 93.5431 166.296 92.9069 165.33 92.9069C163.617 92.9069 161.684 93.8503 159.531 95.7371V117.588C159.927 118.466 161.31 118.905 163.683 118.905V120.287H149.449Z" fill="white"/>
<path d="M175.447 120.287V118.905C177.819 118.905 179.203 118.466 179.598 117.588V95.3421C176.875 95.1228 175.491 95.0131 175.447 95.0131V93.4993C176.282 93.4993 177.907 93.0385 180.323 92.1171C182.783 91.1518 184.519 90.6691 185.529 90.6691V93.6309C187.857 91.6564 190.296 90.6691 192.843 90.6691C198.115 90.6691 201.498 91.9416 202.991 94.4865C205.452 91.9416 208.197 90.6691 211.228 90.6691C218.609 90.6691 222.299 93.1702 222.299 98.1723V117.588C222.694 118.466 224.078 118.905 226.45 118.905V120.287H212.217V118.905C214.589 118.905 215.973 118.466 216.368 117.588V100.608C216.368 97.7555 215.951 95.759 215.116 94.6182C214.282 93.4773 212.854 92.9069 210.833 92.9069C208.241 92.9069 205.847 93.96 203.65 96.0661C203.826 96.6366 203.914 97.3386 203.914 98.1723V117.588C204.309 118.466 205.693 118.905 208.065 118.905V120.287H193.832V118.905C196.204 118.905 197.588 118.466 197.983 117.588V100.608C197.983 97.7555 197.566 95.759 196.731 94.6182C195.897 93.4773 194.469 92.9069 192.448 92.9069C189.944 92.9069 187.638 93.8722 185.529 95.8029V117.588C185.924 118.466 187.308 118.905 189.68 118.905V120.287H175.447Z" fill="white"/>
<path d="M229.695 120.287V118.905C232.067 118.905 233.451 118.466 233.847 117.588V95.3421C231.123 95.1228 229.739 95.0131 229.695 95.0131V93.4993C230.53 93.4993 232.155 93.0385 234.571 92.1171C237.031 91.1518 238.767 90.6691 239.777 90.6691V117.588C240.173 118.466 241.556 118.905 243.929 118.905V120.287H229.695ZM236.614 86.4568C235.648 86.4568 234.791 86.1058 234.044 85.4037C233.341 84.6578 232.99 83.7144 232.99 82.5736C232.99 81.5644 233.297 80.6868 233.912 79.9409C234.571 79.195 235.406 78.822 236.416 78.822C237.383 78.822 238.24 79.195 238.986 79.9409C239.733 80.6868 240.107 81.6302 240.107 82.771C240.107 83.7802 239.777 84.6578 239.118 85.4037C238.459 86.1058 237.625 86.4568 236.614 86.4568Z" fill="white"/>
<path d="M247.327 120.287V118.905C249.7 118.905 251.083 118.466 251.479 117.588V95.3421C248.755 95.1228 247.371 95.0131 247.327 95.0131V93.4993C248.162 93.4993 249.787 93.0385 252.204 92.1171C254.664 91.1518 256.399 90.6691 257.409 90.6691V93.6967C259.782 91.6783 262.395 90.6691 265.251 90.6691C269.336 90.6691 272.28 91.437 274.081 92.9727C275.926 94.4646 276.849 96.8121 276.849 100.015V117.588C277.244 118.466 278.628 118.905 281 118.905V120.287H266.767V118.905C269.139 118.905 270.523 118.466 270.918 117.588V99.5545C270.918 95.1228 268.897 92.9069 264.856 92.9069C262.088 92.9069 259.606 93.8722 257.409 95.8029V117.588C257.805 118.466 259.189 118.905 261.561 118.905V120.287H247.327Z" fill="white"/>
</svg>
