<svg width="103" height="116" viewBox="0 0 103 116" fill="none" xmlns="http://www.w3.org/2000/svg">
<path d="M31.0238 3.9C25.2904 3.9 20.5238 6.26667 16.7238 11C12.9238 15.7333 11.0238 21.8667 11.0238 29.4C11.0238 38.2 13.0238 45.1 17.0238 50.1C21.0238 55.1 25.8238 57.6 31.4238 57.6C34.7571 57.6 38.0571 56.4667 41.3238 54.2C44.5905 51.8667 46.6904 49.4 47.6238 46.8L50.0238 48C48.4904 51.6667 46.0571 54.7667 42.7238 57.3C39.4571 59.7667 35.0238 61 29.4238 61C20.5571 61 13.5238 58.1333 8.32378 52.4C3.19045 46.6 0.623779 39.6667 0.623779 31.6C0.623779 22.2667 3.59045 14.7667 9.52378 9.1C15.5238 3.36667 22.6571 0.5 30.9238 0.5C32.8571 0.5 35.0905 1 37.6238 2C40.1571 3 41.6238 3.5 42.0238 3.5C42.8238 3.5 43.2238 2.83333 43.2238 1.5H45.5238L46.5238 14.2H44.3238C43.8571 11.2 42.5238 8.73333 40.3238 6.8C38.1904 4.86667 35.0904 3.9 31.0238 3.9Z" fill="white"/>
<path d="M68.6 57V59.1C65.5333 59.1 63.6 59.5 62.8 60.3L78.1 102.2L92.8 60.9C92.1333 59.7 90.0667 59.1 86.6 59.1V57H103V59.1C99.2667 59.1 97.1667 59.8 96.7 61.2L77.3 115.5H72.5L60 80.6L47.6 115.5H42.8L24 62.5C23.5 61 22 61 19 59.5C16 58 16 58 16 58L36.5 58.5L37 59.1C33.9333 59.1 33.9 59.5 33.1 60.3L48.4 102.1L58 75L53.1 61.2C52.6333 59.8 50.5 59.1 46.7 59.1V57H68.6Z" fill="white"/>
</svg>
